<svg xmlns="http://www.w3.org/2000/svg" viewBox="0 0 500 500"><g id="freepik--background-complete--inject-64"><g><rect x="104.1998" y="73.7374" width="81.8074" height="104.9602" style="fill:#e6e6e6;"></rect><rect x="85.8969" y="73.7374" width="96.0959" height="104.9602" style="fill:#f0f0f0;"></rect><rect x="94.7569" y="83.0602" width="77.9589" height="86.3144" style="fill:#fff;"></rect><rect x="120.3648" y="110.6389" width="28.1412" height="31.1573" style="fill:#f0f0f0;"></rect></g><g><rect x="104.1998" y="199.8075" width="81.8074" height="104.9602" style="fill:#e6e6e6;"></rect><rect x="85.8969" y="199.8075" width="96.0959" height="104.9602" style="fill:#f0f0f0;"></rect><rect x="94.7569" y="209.1303" width="77.9589" height="86.3144" style="fill:#fff;"></rect><rect x="120.3648" y="236.709" width="28.1412" height="31.1573" style="fill:#f0f0f0;"></rect></g><g><rect x="270.21729" y="68.8218" width="163.4516" height="245.7003" style="fill:#e0e0e0;"></rect><rect x="277.40939" y="76.6712" width="149.4953" height="228.5505" style="fill:#f5f5f5;"></rect><polygon points="319.65969 76.6712 277.40939 293.3367 277.40939 176.0409 296.74229 76.6712 319.65969 76.6712" style="fill:#fff;"></polygon><polygon points="338.54289 76.6712 293.98429 305.2217 285.58069 305.2217 330.13909 76.6712 338.54289 76.6712" style="fill:#fff;"></polygon><polygon points="426.90469 138.9956 426.90469 256.3118 417.44139 305.2217 394.52359 305.2217 426.90469 138.9956" style="fill:#fff;"></polygon><rect x="349.04009" y="68.8218" width="5.806" height="245.7003" style="fill:#e0e0e0;"></rect><rect x="273.05509" y="103.5614" width="157.4781" height="5.8061" style="fill:#e0e0e0;"></rect></g><g><path d="M64.6802,393.4172c-2.334,0-4.2178,2.0062-3.976,4.3276,2.1634,20.761,19.7166,36.9463,41.0491,36.9463,21.3342,0,38.8874-16.1853,41.0509-36.9463,.2417-2.3214-1.6421-4.3276-3.9761-4.3276H64.6802Z" style="fill:#e0e0e0;"></path><path d="M82.4521,386.9982c-.6716,0-1.2149-.5441-1.2149-1.2149v-7.4495c0-5.6193,4.5724-10.1912,10.1913-10.1912h24.7011c2.0478,0,3.7134-1.6663,3.7134-3.7142s-1.6656-3.7134-3.7134-3.7134h-19.844c-3.2365,0-5.8704-2.6334-5.8704-5.8703,0-3.2372,2.6339-5.8706,5.8704-5.8706h8.7416c2.6623,0,4.8263-2.1652,4.8263-4.8268,0-2.6611-2.164-4.8265-4.8263-4.8265h-5.5666c-.6716,0-1.2149-.5438-1.2149-1.2149,0-.6708,.5433-1.2149,1.2149-1.2149h5.5666c4.0006,0,7.256,3.255,7.256,7.2563s-3.2554,7.2566-7.256,7.2566h-8.7416c-1.8982,0-3.4406,1.5436-3.4406,3.4408,0,1.8969,1.5424,3.4405,3.4406,3.4405h19.844c3.3886,0,6.1432,2.7561,6.1432,6.1432,0,3.3879-2.7546,6.144-6.1432,6.144h-24.7011c-4.2806,0-7.7615,3.4814-7.7615,7.7614v7.4495c0,.6708-.5435,1.2149-1.2149,1.2149Z" style="fill:#e0e0e0; opacity:.5;"></path></g><path d="M396.02049,406.2778c-1.6068,0-2.9036,1.3811-2.7372,2.9792,1.4894,14.292,13.5731,25.4341,28.2585,25.4341,14.6866,0,26.7704-11.1421,28.2597-25.4341,.16651-1.5981-1.1304-2.9792-2.7371-2.9792h-51.0439Z" style="fill:#e0e0e0;"></path><g><g><path d="M443.92039,330.1975h-180.7461c-3.2324,0-5.86229-2.6298-5.86229-5.8623V61.0618c0-3.2324,2.62989-5.8618,5.86229-5.8618h180.7461c3.2324,0,5.8623,2.6294,5.8623,5.8618V324.3352c0,3.2325-2.6299,5.8623-5.8623,5.8623ZM263.17429,55.45c-3.0947,0-5.61229,2.5176-5.61229,5.6118V324.3352c0,3.0948,2.51759,5.6123,5.61229,5.6123h180.7461c3.0947,0,5.6123-2.5175,5.6123-5.6123V61.0618c0-3.0942-2.5176-5.6118-5.6123-5.6118h-180.7461Z" style="fill:#e0e0e0;"></path><path d="M235.49269,330.1975H54.7461c-3.2324,0-5.8618-2.6298-5.8618-5.8623V61.0618c0-3.2324,2.6294-5.8618,5.8618-5.8618H235.49269c3.2324,0,5.86231,2.6294,5.86231,5.8618V324.3352c0,3.2325-2.62991,5.8623-5.86231,5.8623ZM54.7461,55.45c-3.0942,0-5.6118,2.5176-5.6118,5.6118V324.3352c0,3.0948,2.5176,5.6123,5.6118,5.6123H235.49269c3.0947,0,5.61231-2.5175,5.61231-5.6123V61.0618c0-3.0942-2.51761-5.6118-5.61231-5.6118H54.7461Z" style="fill:#e0e0e0;"></path></g><g><rect x="0" y="374.3273" width="500" height=".25" style="fill:#e0e0e0;"></rect><rect x="51.6724" y="388.5918" width="16.06" height=".25" style="fill:#e0e0e0;"></rect><rect x="170.3524" y="385.8818" width="53.53" height=".25" style="fill:#e0e0e0;"></rect><rect x="68.7324" y="397.8818" width="36.25" height=".25" style="fill:#e0e0e0;"></rect><rect x="378.35239" y="385.7518" width="43.19" height=".25" style="fill:#e0e0e0;"></rect><rect x="430.45239" y="385.7518" width="6.33" height=".25" style="fill:#e0e0e0;"></rect><rect x="316.21239" y="391.9818" width="53.89" height=".25" style="fill:#e0e0e0;"></rect></g></g></g><g id="freepik--Shadow--inject-64"><path d="M458.875,448.3939c0,3.3867-93.51651,6.1322-208.875,6.1322s-208.875-2.7455-208.875-6.1322,93.5165-6.1323,208.875-6.1323,208.875,2.7455,208.875,6.1323Z" style="fill:#f5f5f5;"></path></g><g id="freepik--Speech_Bubble--inject-64"><g><path d="M125.9281,135.7215c10.8334-21.662,37.1765-30.4398,58.8382-19.606,20.7733,10.3892,29.6862,35.0387,20.8292,56.1479l5.9969,12.4769-13.5085-.4355c-12.8325,14.6086-34.3428,19.3612-52.5497,10.2554-21.6621-10.8336-30.4401-37.1765-19.6061-58.8387Z" style="fill:#407BFF;"></path><path d="M125.9281,135.7215c10.8334-21.662,37.1765-30.4398,58.8382-19.606,20.7733,10.3892,29.6862,35.0387,20.8292,56.1479l5.9969,12.4769-13.5085-.4355c-12.8325,14.6086-34.3428,19.3612-52.5497,10.2554-21.6621-10.8336-30.4401-37.1765-19.6061-58.8387Z" style="fill:#fff; opacity:.6;"></path><path d="M215.17627,149.61523c-.20312,0-.37012-.16211-.375-.36621-.33398-14.07373-8.33057-27.87939-20.37256-35.1709-.17725-.10742-.23389-.33789-.12646-.51514,.10693-.17627,.33643-.23291,.51514-.12646,12.25537,7.4209,20.39355,21.47119,20.73389,35.79492,.00488,.20703-.15918,.37891-.36621,.38379h-.00879Z" style="fill:#407BFF;"></path><path d="M214.3999,162.59766c-.03857,0-.07764-.00586-.11621-.01855-.19678-.06396-.30469-.27539-.24023-.47266,.65381-2.0083,.89062-4.18262,.68408-6.28711-.02051-.20605,.13037-.38965,.33643-.40967,.20215-.01855,.38916,.13037,.40967,.33643,.2168,2.20654-.03125,4.48633-.71729,6.59277-.05127,.1582-.19824,.25879-.35645,.25879Z" style="fill:#407BFF;"></path><path d="M182.0252,151.4903c-.2439-2.1963-1.3009-4.2557-2.7672-5.909-1.4367-1.6194-3.3149-2.8991-5.4285-3.3669-2.2454-.4969-4.688-.0266-6.5878,1.2685-1.1302,.7706-2.0588,1.8261-2.7009,3.033-.6228-1.0747-1.4759-2.016-2.4977-2.7228-1.8909-1.3086-4.3302-1.7959-6.5786-1.3144-2.1172,.4532-4.004,1.7198-5.4518,3.3292-1.4778,1.6428-2.5493,3.6951-2.8082,5.8896-.3241,2.7489,.1972,5.7605,1.6148,8.1373,1.4977,2.5101,3.9239,4.5418,6.4219,6.0587,4.201,2.5506,9.7326,5.7453,9.7326,5.7453,0,0,4.6972-3.4873,8.9157-6.0087,2.509-1.4995,4.9496-3.5138,6.4639-6.0133,1.4344-2.3674,1.9766-5.3756,1.6718-8.1265Z" style="fill:#fff;"></path></g></g><g id="freepik--Table--inject-64"><g id="freepik--freepik--Table--inject-2--inject-64"><rect x="29.4372" y="434.0454" width="427.7598" height="13.0618" style="fill:#407BFF;"></rect><rect x="29.4372" y="434.0454" width="427.7598" height="13.0618" style="opacity:.3;"></rect></g></g><g id="freepik--Character--inject-64"><g><g><path d="M223.29609,258.6988l-94.7097-28.6399c-.9605-.2904-1.4561-1.3504-1.063-2.2736h0c.3414-.8021,1.2327-1.2132,2.0624-.9459,11.3813,3.6669,85.7008,27.6088,94.199,30.2761,.4363,.137,.67821,.6005,.542,1.037h0c-.1354,.4341-.5954,.6779-1.0307,.5463Z" style="fill:#407BFF;"></path><g><path d="M222.15519,260.516l-98.4536-9.8531c-.9984-.0999-1.6889-1.0445-1.4811-2.0262h0c.1805-.8528,.9759-1.4279,1.8415-1.3255,11.8745,1.405,89.41469,10.5772,98.26759,11.557,.4545,.0503,.7812,.4586,.7317,.9131h0c-.04929,.4521-.4537,.7799-.9061,.7347Z" style="fill:#407BFF;"></path><path d="M193.666,342.5774s29.59369-64.1636,41.51219-63.884c14.7087,.3451,19.0149,11.8007,11.4891,25.2336-7.4992,13.3854-25.1384,66.4417-39.5704,79.154-7.539,6.6407-32.7162,11.5157-39.197-16.7241-3.0926-13.4755-12.8366-78.6698-12.8366-78.6698l16.8352-.1144,21.7675,55.0047Z" style="fill:#e4897b;"></path><path d="M152.1928,256.2504s11.302-13.506,15.424-15.2303c4.1221-1.7242,9.7815-3.9704,10.327-.9294,.5456,3.041-8.2992,7.9689-7.9079,7.736,.3912-.2329,13.2743,1.7642,13.995,4.066,.7206,2.3019-.2105,3.1152-2.4618,3.0882-2.2513-.0269-9.5524-1.2713-9.5524-1.2713,0,0-6.0771,4.7214-5.7117,4.8713,.3654,.1498,6.1175-3.467,9.7545-1.7192,3.6371,1.7479,3.9065,7.0233,3.9065,7.0233,0,0,.4598,2.3073-.1902,4.5165s-2.5595,.8285-4.2366-.2862-.5271-1.3105-.5271-1.3105l-3.5158,2.0155s3.4758,11.2826,2.2095,15.2025c-1.2663,3.92-2.2316,4.6045-2.2316,4.6045h-16.2119l-3.0695-32.3769Z" style="fill:#e4897b;"></path><path d="M193.2737,342.5774s4.4608,12.696-1.031,21.0461c0,0,13.4849-11.3408,1.031-21.0461Z" style="opacity:.3;"></path></g></g><path d="M372.65479,317.2452c-2.64979-3.1176-7.2031-4.7879-9.0441-8.3596-1.9972-3.8745-.0661-8.3742,.495-12.6267,1.3991-10.6059-5.9529-20.3694-13.2218-28.7316-7.269-8.362-15.22089-17.439-15.3187-28.1214-.0934-10.2008,7.0051-19.08,11.7745-28.3016,4.127-7.9796,6.633-16.7823,6.19331-25.6005-.43971-8.8181-2.07831-19.3504-10.68691-23.9954l-101.8756,36.9799c-4.4726,16.9306-9.8822,38.6814-5.5918,55.6514,4.2905,16.9701,4.80531,33.1083,12.9066,48.8717,5.035,9.7971,23.9576,15.8974,32.8451,23.0471,10.0518,8.0864,23.3708,11.7942,36.4132,14.5541,14.7492,3.1211,30.8515,5.1915,44.5283-.7446,4.6569-2.0213,8.9736-5.0571,11.334-9.2482,2.3603-4.1912,2.4125-9.6526-.7511-13.3746Z" style="fill:#263238;"></path><g><path d="M216.83319,312.545c-2.8754,8.4666-11.5863,37.4701,6.233,71.0056,9.3085,18.7399-10.954,39.0244-6.4318,50.4948l115.4914-.1061c-1.8947-12.9875-13.2701-42.1597-13.2701-42.1597,0,0,16.0304-49.3688,23.57931-85.6744,2.95329-14.1163-6.09611-27.9539-20.21241-30.9071-.9039-.1891-1.8171-.3301-2.7358-.4225-4.1237-.4124-8.49479-.7629-12.969-1.0309-17.3813-.8351-31.6389-1.3918-46.9275,0-5.0618,.4639-10.3092,1.1031-15.2988,1.8041-18.0867,2.5776-21.2282,19.9034-27.4583,36.9962Z" style="fill:#407BFF;"></path></g><g><path d="M264.23869,143.0788c-15.46369-5.9484-31.144,8.9277-29.8966,36.546,.9381,20.6184-18.7834,18.371-8.4742,36.7317s2.67011,30.7833-8.2473,27.4431c8.2473,10.3917,32.608,2.3711,32.6801-14.5772,.0722-16.9483,41.7729,7.7834,41.7729,7.7834,0,0-8.4639,14.8865,15.1648,11.4329s44.1337-50.9686,44.2161-72.0716c.0619-13.9895-14.8864-20.4534-22.4431-19.0823-.2783-17.8658-71.9891-51.082-64.7727-14.206Z" style="fill:#263238;"></path><path d="M222.79579,242.9749c-2.1695,.0017-4.31279-.4734-6.2783-1.3918l.4639-.9175s4.7422,2.3711,9.2783,.732c2.7422-1.031,4.8762-3.2577,6.3504-6.7319l.9485,.402c-1.58759,3.7526-3.9278,6.1855-6.9587,7.2989-1.223,.4227-2.5104,.6285-3.8041,.6083Z" style="fill:#263238;"></path><path d="M227.22869,202.8412l-.8041-.6392c5.701-7.103,5.08241-13.5772,4.3608-21.072-.6495-6.8247-1.3918-14.5669,2.7835-24.0101,4.6907-10.5979,11.0308-16.8968,18.34-18.2164,6.10311-1.1134,12.5773,1.4639,18.237,7.2165l-.73189,.7216c-5.41241-5.5257-11.567-7.9999-17.31951-6.9587-6.9587,1.2577-13.0411,7.3608-17.5256,17.6287-4.1237,9.1958-3.3402,16.7834-2.701,23.4844,.6494,7.4329,1.3195,14.4225-4.6392,21.8452Z" style="fill:#263238;"></path><path d="M300.29,221.2328c-2.95871,15.0926-5.90721,42.7625,4.64949,52.8346,0,0-35.2248,19.9532-51.1161,49.0545-10.8182-26.2135,4.18861-49.0545,4.18861-49.0545,16.84519-4.0206,16.40189-16.4947,13.47409-28.2472l28.80391-24.5874Z" style="fill:#e4897b;"></path><path d="M316.21769,193.532c-5.8865,24.5565-7.8659,35.0512-22.4225,45.6388-21.8864,15.8864-50.15419,3.3505-51.546-22.4535-1.2783-23.2266,8.567-59.484,34.1441-65.1438,25.16471-5.5772,45.7213,17.402,39.8244,41.9585Z" style="fill:#e4897b;"></path><path d="M318.35169,162.6559c-24.5153,20.9689-48.40169-13.67-62.6593,3.3917-8.2473-7.3401,14.98961-26.2369,28.9689-26.9276,13.9792-.6907,44.2779,8.9381,33.6904,23.5359Z" style="fill:#263238;"></path><path d="M314.56819,160.6559c-25.6596,9.3917-14.2885,58.7625,7.7834,55.7625,22.072-3,18.4535-51.1852-7.7834-55.7625Z" style="fill:#263238;"></path><path d="M269.02219,218.0782c-1.1544-.0066-2.30619-.11-3.4433-.3093-.3253-.0568-.543-.3666-.4862-.6919l.0017-.0091c.0512-.3205,.3524-.5389,.6729-.4877l.0178,.0031c5.08091,1.013,10.3406-.4531,14.16491-3.9484,.23689-.2345,.61859-.2345,.85559,0,.2345,.237,.2345,.6187,0,.8557-3.1831,3.0013-7.4089,4.6465-11.7834,4.5876Z" style="fill:#263238;"></path><path d="M317.929,217.4081c-3.25481,3.5489-7.87591,5.531-12.69061,5.4432-6.0206-.3196-6.7113-7.2783-3.0928-12.8762,3.24741-5.0412,10.3092-10.9483,15.402-7.8865,5.0927,3.0618,4.7422,10.7628,.38141,15.3195Z" style="fill:#e4897b;"></path><path d="M281.32109,216.2637c-.3485-4.1741,1.09891-8.2989,3.9793-11.3401-.9673,.1069-1.8656,.5524-2.5361,1.2577-2.5131,2.618-3.7852,6.1867-3.4948,9.8041,.2268,3.6494,2.7319,6.9484,5.8144,7.6907-2.223-1.846-3.5847-4.5283-3.7628-7.4124Z" style="fill:#e4897b;"></path><g><g><path d="M285.406,193.9714c-.33691,2.5029-2.04381,4.4494-3.81261,4.3476-1.7686-.1013-2.9291-2.2122-2.5921-4.7145,.33671-2.5026,2.0434-4.4494,3.8118-4.3481,1.7686,.1013,2.9291,2.2122,2.59291,4.715Z" style="fill:#263238;"></path><path d="M259.49759,191.4811c-.3272,2.3885-2.0005,4.2441-3.7373,4.145-1.7369-.0997-2.88029-2.1164-2.553-4.505,.3269-2.3883,2.0002-4.2444,3.737-4.1449,1.7369,.0991,2.8801,2.1162,2.5533,4.5049Z" style="fill:#263238;"></path><path d="M289.65789,185.0337c-.347,.0409-.6986-.0465-.9672-.271-4.1821-3.5097-8.9093-2.1814-8.9639-2.166-.7004,.1985-1.4075-.1551-1.56579-.8099-.15621-.6545,.29059-1.351,1.00009-1.5598,.2472-.0708,6.1798-1.7435,11.3697,2.6143,.5168,.4341,.5247,1.2172,.0177,1.7481-.24549,.255-.5656,.4061-.8906,.4443Z" style="fill:#263238;"></path><path d="M251.61889,178.6708c-.2646-.151-.4672-.3946-.5463-.6992-.164-.6293,.2537-1.2789,.931-1.4515,6.7949-1.7257,11.08941,1.8433,11.2696,1.999,.508,.4331,.5325,1.1784,.053,1.666-.47719,.4873-1.2756,.5316-1.7845,.1024-.1662-.1421-3.5398-2.863-8.9429-1.4893-.3494,.0884-.7003,.0329-.9799-.1274Z" style="fill:#263238;"></path><path d="M266.62939,190.2767s-5.5836,10.8793-10.9198,16.0001c2.9498,3.3353,8.77441,2.1605,8.77441,2.1605l2.14539-18.1606Z" style="fill:#de5753;"></path></g><path d="M277.92689,187.6789l5.6217,1.8023c-2.8245,2.7149-5.6217-1.8023-5.6217-1.8023Z" style="fill:#263238;"></path><path d="M252.34879,185.4214l5.6217,1.8023c-2.82449,2.7148-5.6217-1.8023-5.6217-1.8023Z" style="fill:#263238;"></path></g><path d="M306.47168,212.83398c-.01367,0-.02734-.00098-.04199-.00244-.20605-.02295-.35352-.2085-.33105-.41455,.26855-2.37842,1.70117-4.63623,3.73828-5.89258,2.03711-1.25586,4.69727-1.52197,6.94434-.69385,.19434,.07178,.29395,.2876,.22168,.48193-.07129,.19434-.28613,.29443-.48145,.22217-2.0332-.75049-4.44531-.51074-6.29004,.62842-1.84668,1.13818-3.14453,3.18359-3.38672,5.33789-.02246,.19141-.18457,.33301-.37305,.33301Z" style="opacity:.5;"></path></g><g><path d="M297.76649,424.6257c-1.299-5.4292-4.9873-9.978-10.0308-12.371l-11.402-5.3505c-3.373-1.5903-7.3122-1.4207-10.536,.4536l-5.1546,2.9897c-2.8957,1.6942-4.4459,4.9995-3.8969,8.3092l1.5876,9.5772c.6986,4.1578,4.4688,7.0852,8.67,6.7319l4.7114-.402s20.7221,6.3303,30.8973-.6696l-4.846-9.2685Z" style="fill:#e4897b;"></path><path d="M378.76459,385.8159l-.05159-1.0309-.05151-.5877-.3196-3.1546c-.1855-2.1339-.5361-4.1958-.8041-6.2577-2.6919-16.1377-7.5466-31.8391-14.4329-46.68-1.6391-3.6597-3.4123-7.237-5.2474-10.7834-1.835-3.5463-3.7422-7.0206-5.7628-10.4638-2.0206-3.4433-4.09269-6.835-6.3092-10.1649-1.1134-1.6701-2.21649-3.3401-3.402-4.9896l-1.7938-2.4845-.9381-1.2681-1.031-1.4124-.0412-.0515c-5.6936-7.8287-16.6556-9.5595-24.48439-3.8659-7.82861,5.6936-9.55951,16.6557-3.86591,24.4843l.433,.6186,1.2783,1.8454,1.4021,2.0618,2.8247,4.2989c1.8453,2.9175,3.6906,5.8556,5.46381,8.8453,3.51549,5.9793,6.90719,12.0411,9.93819,18.2266,6.1491,12.0094,10.9149,24.6781,14.206,37.7627,.3505,1.5876,.7629,3.1855,1.0309,4.7731l.1435,.7708c-.1181,.1372-.2219,.286-.3497,.4147-1.971,2.0434-4.1358,3.8906-6.46389,5.5155-2.54631,1.8969-5.36071,3.7525-8.29881,5.536-11.7525,7.1958-25.1029,13.6906-38.041,20.1235l-.3299,.1547c-3.548,1.7103-5.5165,5.5799-4.8098,9.4546,.8673,4.7555,5.42551,7.9074,10.1809,7.0401,2.02061-.3609,3.8969-.6494,5.7938-1.0309s3.7835-.7629,5.67-1.1753c3.7629-.866,7.52581-1.7835,11.2577-2.8144,3.7319-1.0309,7.47411-2.134,11.1957-3.3918,3.7217-1.2577,7.4536-2.5669,11.1855-4.1236,3.732-1.5567,7.4742-3.2474,11.268-5.2474,4.1017-2.165,7.9855-4.7197,11.5978-7.6288,2.2527-1.8412,4.3052-3.9145,6.1237-6.1855,1.1355-1.4487,2.1362-2.998,2.9897-4.6288,1.058-2.04,1.84471-4.2096,2.3401-6.4536,.1237-.6392,.2577-1.2474,.3402-1.9278s.165-1.3814,.165-2.0619c.04041-.6866,.04041-1.3751,0-2.0618Zm-30.7317-1.1031c-.1535,.3122-.3392,.6056-.533,.8931,.3593-1.1687,.7409-1.2792,.533-.8931Z" style="fill:#e4897b;"></path><path d="M346.80609,385.5376c1.799-.878,11.32391-.589,15.066,3.5688,0,0-.9758-10.1367-15.8718-7.3551l.8058,3.7863Z" style="fill:#263238; opacity:.3;"></path></g></g></g><g id="freepik--Sushi--inject-64"><g><path d="M134.0407,430.2227h-51.4393c-1.0512,0-1.9113,.8601-1.9113,1.9114h0c0,1.0512,.8601,1.9113,1.9113,1.9113h51.4393c1.0513,0,1.9114-.8601,1.9114-1.9113h0c0-1.0513-.8601-1.9114-1.9114-1.9114Z" style="fill:#b97964;"></path><g><g><path d="M96.6621,411.1489c-5.2674,0-9.5371,4.2697-9.5371,9.537s4.2697,9.5368,9.5371,9.5368h4.7683v-19.0738h-4.7683Z" style="fill:#263238;"></path><path d="M96.6621,411.1489c-5.2674,0-9.5371,4.2697-9.5371,9.537s4.2697,9.5368,9.5371,9.5368h4.7683v-19.0738h-4.7683Z" style="opacity:.3;"></path></g><circle cx="101.43042" cy="420.68582" r="9.53684" transform="translate(-276.40036 209.71522) rotate(-47.26647)" style="fill:#263238;"></circle><path d="M109.5597,420.6858c.2238-4.6394-3.4891-8.2012-8.1293-8.4102-4.6402-.2092-8.4141,4.1651-8.1299,8.8013,.2844,4.6362,3.7754,7.8318,8.4155,7.6215,4.64-.2104,7.6199-3.3731,7.8437-8.0126Z" style="fill:#fff;"></path><path d="M99.4488,418.2777c-1.1456,.981-.8779,3.511,.2952,4.4588,1.1731,.9479,3.0003,.7378,4.0195-.3738,1.0194-1.1116,1.1211-2.7528-.596-3.9751-1.82-1.2955-2.5732-1.0909-3.7187-.1099Z" style="fill:#263238;"></path></g><g><g><path d="M116.6591,411.1489c-5.2674,0-9.5372,4.2697-9.5372,9.537s4.2698,9.5368,9.5372,9.5368h4.7683v-19.0738h-4.7683Z" style="fill:#407BFF;"></path><path d="M116.6591,411.1489c-5.2674,0-9.5372,4.2697-9.5372,9.537s4.2698,9.5368,9.5372,9.5368h4.7683v-19.0738h-4.7683Z" style="opacity:.3;"></path></g><path d="M130.9641,420.6858c0-5.2671-4.2697-9.5368-9.5367-9.5368s-9.5369,4.2697-9.5369,9.5368,4.2698,9.5369,9.5369,9.5369,9.5367-4.2699,9.5367-9.5369Z" style="fill:#407BFF;"></path><path d="M129.5567,420.6858c.2238-4.6394-3.4893-8.2012-8.1293-8.4102-4.6402-.2092-8.4142,4.1651-8.1299,8.8013,.2842,4.6362,3.7752,7.8318,8.4154,7.6215,4.6401-.2104,7.62-3.3731,7.8438-8.0126Z" style="fill:#fff;"></path><path d="M120.7998,423.4364c1.4709,.3336,3.3411-1.391,3.4015-2.898,.0605-1.507-1.1986-2.8477-2.6988-3.0021s-2.8778,.7435-2.8338,2.8506c.0467,2.2336,.6604,2.7158,2.1311,3.0495Z" style="fill:#407BFF;"></path></g></g><g><path d="M399.06609,431.2629h-51.4393c-1.0512,0-1.9113,.8601-1.9113,1.9113h0c0,1.0513,.8601,1.9114,1.9113,1.9114h51.4393c1.0512,0,1.9113-.8601,1.9113-1.9114h0c0-1.0512-.8601-1.9113-1.9113-1.9113Z" style="fill:#b97964;"></path><g><g><path d="M361.68749,412.1891c-5.2674,0-9.5371,4.2697-9.5371,9.537s4.2697,9.5368,9.5371,9.5368h4.7683v-19.0738h-4.7683Z" style="fill:#263238;"></path><path d="M361.68749,412.1891c-5.2674,0-9.5371,4.2697-9.5371,9.537s4.2697,9.5368,9.5371,9.5368h4.7683v-19.0738h-4.7683Z" style="opacity:.3;"></path></g><circle cx="366.45582" cy="421.72603" r="9.53683" transform="translate(-191.00447 458.88427) rotate(-52.82471)" style="fill:#263238;"></circle><path d="M374.58509,421.726c.2238-4.6394-3.48909-8.2012-8.1293-8.4102-4.6402-.2092-8.4141,4.1651-8.1299,8.8013,.2843,4.6362,3.7754,7.8318,8.4154,7.6215,4.6401-.2105,7.62-3.3731,7.8438-8.0126Z" style="fill:#fff;"></path><path d="M364.47419,419.3179c-1.1456,.9809-.8779,3.511,.2952,4.4588,1.173,.9479,3.0002,.7378,4.0195-.3738s1.121-2.7529-.5961-3.9751c-1.8199-1.2956-2.5731-1.0909-3.7186-.1099Z" style="fill:#263238;"></path></g><g><g><path d="M381.68439,412.1891c-5.2673,0-9.5371,4.2697-9.5371,9.537s4.2698,9.5368,9.5371,9.5368h4.7683v-19.0738h-4.7683Z" style="fill:#407BFF;"></path><path d="M381.68439,412.1891c-5.2673,0-9.5371,4.2697-9.5371,9.537s4.2698,9.5368,9.5371,9.5368h4.7683v-19.0738h-4.7683Z" style="opacity:.3;"></path></g><circle cx="386.45267" cy="421.72603" r="9.53688" transform="translate(-86.86608 100.52846) rotate(-13.33801)" style="fill:#407BFF;"></circle><path d="M394.58209,421.726c.2237-4.6394-3.4893-8.2012-8.1294-8.4102-4.6401-.2092-8.4141,4.1651-8.1298,8.8013,.2842,4.6362,3.7752,7.8318,8.4154,7.6215,4.6401-.2105,7.62-3.3731,7.8438-8.0126Z" style="fill:#fff;"></path><path d="M385.82519,424.4766c1.4709,.3336,3.341-1.3911,3.4015-2.898,.0605-1.507-1.1986-2.8477-2.6988-3.0021s-2.8778,.7434-2.8338,2.8505c.0467,2.2336,.6603,2.7159,2.1311,3.0496Z" style="fill:#407BFF;"></path></g></g><g><g><rect x="138.5024" y="415.5924" width="104.9328" height="12.7124" style="fill:#b97964;"></rect><rect x="166.135" y="428.3048" width="12.5603" height="5.7406" style="fill:#a24e3f;"></rect><rect x="203.24239" y="428.3048" width="12.5602" height="5.7406" style="fill:#a24e3f;"></rect><rect x="146.0385" y="428.3048" width="12.5604" height="5.7406" style="fill:#a24e3f;"></rect><rect x="223.33889" y="428.3048" width="12.5602" height="5.7406" style="fill:#a24e3f;"></rect></g><g><g><path d="M156.0232,415.5924c-6.9598,0-7.9541-4.7324-3.9107-7.2511,4.0434-2.519,9.0147-3.1818,14.7815-3.1818s18.5596,5.0238,11.202,10.4329h-22.0728Z" style="fill:#407BFF;"></path><path d="M156.0232,415.5924c-6.9598,0-7.9541-4.7324-3.9107-7.2511,4.0434-2.519,9.0147-3.1818,14.7815-3.1818s18.5596,5.0238,11.202,10.4329h-22.0728Z" style="fill:#fff; opacity:.7;"></path></g><path d="M165.2271,403.165c-7.7883,.1329-20.2734,2.127-12.982,5.5739,7.2913,3.4467,16.8363-1.7898,23.4648,.464,6.6284,2.2537,6.562-.5967,2.5188-2.9828-4.0435-2.3863-7.8338-3.1435-13.0016-3.0551Z" style="fill:#407BFF;"></path><path d="M171.8579,403.3076c-.5918-.1658-3.2467-.8381-6.3639-.5233-.2863,.0289-.4006,.3736-.2131,.5917,3.6604,4.2586,.8538,12.2163,.8538,12.2163h6.2804c2.7663-6.332,.0976-11.3457-.3677-12.1394-.0458-.0778-.1023-.121-.1895-.1453Z" style="fill:#263238;"></path></g><g><g><path d="M175.3709,415.5924c-6.9598,0-7.9542-4.7324-3.9108-7.2511,4.0433-2.519,9.0146-3.1818,14.7814-3.1818s18.5597,5.0238,11.2022,10.4329h-22.0728Z" style="fill:#407BFF;"></path><path d="M175.3709,415.5924c-6.9598,0-7.9542-4.7324-3.9108-7.2511,4.0433-2.519,9.0146-3.1818,14.7814-3.1818s18.5597,5.0238,11.2022,10.4329h-22.0728Z" style="fill:#fff; opacity:.7;"></path></g><path d="M184.5747,403.165c-7.7884,.1329-20.2733,2.127-12.9821,5.5739,7.2914,3.4467,16.8363-1.7898,23.4648,.464,6.6284,2.2537,6.5622-.5967,2.5188-2.9828-4.0433-2.3863-7.8337-3.1435-13.0015-3.0551Z" style="fill:#407BFF;"></path><path d="M191.2056,403.3076c-.5919-.1658-3.2468-.8381-6.3641-.5233-.2861,.0289-.4005,.3736-.2129,.5917,3.6604,4.2586,.8536,12.2163,.8536,12.2163h6.2806c2.7661-6.332,.0976-11.3457-.3678-12.1394-.0457-.0778-.1023-.121-.1894-.1453Z" style="fill:#263238;"></path></g><g><rect x="213.01739" y="402.7014" width="16.60161" height="12.8909" rx="1.0232" ry="1.0232"></rect><rect x="206.73729" y="402.7014" width="16.6016" height="12.8909" rx="1.0232" ry="1.0232" style="fill:#263238;"></rect></g></g></g></svg>
