<svg xmlns="http://www.w3.org/2000/svg" viewBox="0 0 500 500"><g id="freepik--background-complete--inject-503"><rect x="293.88" y="74.75" width="142.9" height="158.13" style="fill:#e0e0e0"></rect><rect x="300.17" y="81.01" width="130.7" height="145.92" style="fill:#f5f5f5"></rect><polygon points="337.1 81.01 300.17 219.35 300.17 144.46 317.07 81.01 337.1 81.01" style="fill:#fff"></polygon><polygon points="353.61 81.01 314.66 226.94 307.31 226.94 346.27 81.01 353.61 81.01" style="fill:#fff"></polygon><polygon points="430.86 120.81 430.86 195.71 422.59 226.94 402.56 226.94 430.86 120.81" style="fill:#fff"></polygon><rect x="362.79" y="74.75" width="5.08" height="158.13" style="fill:#e0e0e0"></rect><rect x="296.36" y="106.84" width="137.68" height="5.08" style="fill:#e0e0e0"></rect><rect x="58.88" y="74.75" width="142.9" height="158.13" style="fill:#e0e0e0"></rect><rect x="65.16" y="81.01" width="130.7" height="145.92" style="fill:#f5f5f5"></rect><polygon points="102.1 81.01 65.16 219.35 65.16 144.46 82.07 81.01 102.1 81.01" style="fill:#fff"></polygon><polygon points="118.61 81.01 79.66 226.94 72.31 226.94 111.26 81.01 118.61 81.01" style="fill:#fff"></polygon><polygon points="195.86 120.81 195.86 195.71 187.59 226.94 167.55 226.94 195.86 120.81" style="fill:#fff"></polygon><rect x="127.79" y="74.75" width="5.08" height="158.13" style="fill:#e0e0e0"></rect><rect x="61.36" y="106.84" width="137.68" height="5.08" style="fill:#e0e0e0"></rect><path d="M443.92,314.41H263.17a5.87,5.87,0,0,1-5.86-5.86V45.28a5.87,5.87,0,0,1,5.86-5.87H443.92a5.87,5.87,0,0,1,5.86,5.87V308.55A5.87,5.87,0,0,1,443.92,314.41ZM263.17,39.66a5.62,5.62,0,0,0-5.61,5.62V308.55a5.62,5.62,0,0,0,5.61,5.61H443.92a5.61,5.61,0,0,0,5.61-5.61V45.28a5.62,5.62,0,0,0-5.61-5.62Z" style="fill:#e0e0e0"></path><path d="M235.49,314.41H54.75a5.87,5.87,0,0,1-5.87-5.86V45.28a5.87,5.87,0,0,1,5.87-5.87H235.49a5.86,5.86,0,0,1,5.86,5.87V308.55A5.86,5.86,0,0,1,235.49,314.41ZM54.75,39.66a5.62,5.62,0,0,0-5.62,5.62V308.55a5.62,5.62,0,0,0,5.62,5.61H235.49a5.61,5.61,0,0,0,5.61-5.61V45.28a5.62,5.62,0,0,0-5.61-5.62Z" style="fill:#e0e0e0"></path><rect y="375.48" width="500" height="0.25" style="fill:#e0e0e0"></rect><rect x="51.67" y="389.75" width="16.06" height="0.25" style="fill:#e0e0e0"></rect><rect x="170.35" y="387.04" width="53.53" height="0.25" style="fill:#e0e0e0"></rect><rect x="68.73" y="399.04" width="36.25" height="0.25" style="fill:#e0e0e0"></rect><rect x="378.35" y="386.91" width="43.19" height="0.25" style="fill:#e0e0e0"></rect><rect x="430.45" y="386.91" width="6.33" height="0.25" style="fill:#e0e0e0"></rect><rect x="316.21" y="393.14" width="53.89" height="0.25" style="fill:#e0e0e0"></rect><rect x="7.7" y="323.57" width="23.08" height="23.08" style="fill:#f0f0f0"></rect><rect x="7.7" y="348.15" width="23.08" height="23.08" style="fill:#f0f0f0"></rect><rect x="32.63" y="323.57" width="23.08" height="23.08" style="fill:#f0f0f0"></rect><rect x="32.63" y="348.15" width="23.08" height="23.08" style="fill:#f0f0f0"></rect><rect x="57.74" y="323.57" width="23.08" height="23.08" style="fill:#f0f0f0"></rect><rect x="57.74" y="348.15" width="23.08" height="23.08" style="fill:#f0f0f0"></rect><rect x="82.09" y="323.57" width="23.08" height="23.08" style="fill:#f0f0f0"></rect><rect x="82.09" y="348.15" width="23.08" height="23.08" style="fill:#f0f0f0"></rect><rect x="106.29" y="323.57" width="23.08" height="23.08" style="fill:#f0f0f0"></rect><rect x="106.29" y="348.15" width="23.08" height="23.08" style="fill:#f0f0f0"></rect><rect x="130.5" y="323.57" width="23.08" height="23.08" style="fill:#f0f0f0"></rect><rect x="130.5" y="348.15" width="23.08" height="23.08" style="fill:#f0f0f0"></rect><rect x="154.7" y="323.57" width="23.08" height="23.08" style="fill:#f0f0f0"></rect><rect x="154.7" y="348.15" width="23.08" height="23.08" style="fill:#f0f0f0"></rect><rect x="178.9" y="323.57" width="23.08" height="23.08" style="fill:#f0f0f0"></rect><rect x="178.9" y="348.15" width="23.08" height="23.08" style="fill:#f0f0f0"></rect><rect x="203.11" y="323.57" width="23.08" height="23.08" style="fill:#f0f0f0"></rect><rect x="203.11" y="348.15" width="23.08" height="23.08" style="fill:#f0f0f0"></rect><rect x="227.31" y="323.57" width="23.08" height="23.08" style="fill:#f0f0f0"></rect><rect x="227.31" y="348.15" width="23.08" height="23.08" style="fill:#f0f0f0"></rect><rect x="251.51" y="323.57" width="23.08" height="23.08" style="fill:#f0f0f0"></rect><rect x="251.51" y="348.15" width="23.08" height="23.08" style="fill:#f0f0f0"></rect><rect x="275.71" y="323.57" width="23.08" height="23.08" style="fill:#f0f0f0"></rect><rect x="275.71" y="348.15" width="23.08" height="23.08" style="fill:#f0f0f0"></rect><rect x="299.92" y="323.57" width="23.08" height="23.08" style="fill:#f0f0f0"></rect><rect x="299.92" y="348.15" width="23.08" height="23.08" style="fill:#f0f0f0"></rect><rect x="324.12" y="323.57" width="23.08" height="23.08" style="fill:#f0f0f0"></rect><rect x="324.12" y="348.15" width="23.08" height="23.08" style="fill:#f0f0f0"></rect><rect x="348.32" y="323.57" width="23.08" height="23.08" style="fill:#f0f0f0"></rect><rect x="348.32" y="348.15" width="23.08" height="23.08" style="fill:#f0f0f0"></rect><rect x="372.52" y="323.57" width="23.08" height="23.08" style="fill:#f0f0f0"></rect><rect x="372.52" y="348.15" width="23.08" height="23.08" style="fill:#f0f0f0"></rect><rect x="396.73" y="323.57" width="23.08" height="23.08" style="fill:#f0f0f0"></rect><rect x="396.73" y="348.15" width="23.08" height="23.08" style="fill:#f0f0f0"></rect><rect x="420.93" y="323.57" width="23.08" height="23.08" style="fill:#f0f0f0"></rect><rect x="420.93" y="348.15" width="23.08" height="23.08" style="fill:#f0f0f0"></rect><rect x="445.13" y="323.57" width="23.08" height="23.08" style="fill:#f0f0f0"></rect><rect x="445.13" y="348.15" width="23.08" height="23.08" style="fill:#f0f0f0"></rect><rect x="469.33" y="323.57" width="23.08" height="23.08" style="fill:#f0f0f0"></rect><rect x="469.33" y="348.15" width="23.08" height="23.08" style="fill:#f0f0f0"></rect></g><g id="freepik--Shadow--inject-503"><path d="M448.82,446.4c0,3.38-93.52,6.13-208.88,6.13S31.07,449.78,31.07,446.4s93.51-6.14,208.87-6.14S448.82,443,448.82,446.4Z" style="fill:#f5f5f5"></path></g><g id="freepik--Plant--inject-503"><path d="M238.9,414.93c0-.39-1.33-39.16-7.63-45.3-6.14-6-13.18-.22-13.47,0l-.63-.76c.08-.07,8-6.55,14.79,0,6.58,6.4,7.87,44.35,7.93,46Z" style="fill:#263238"></path><path d="M239.44,422.54c0-.46-4.31-46.54,12.52-65.85l.74.65c-16.55,19-12.32,64.65-12.28,65.11Z" style="fill:#263238"></path><path d="M238.82,417.67l-1-.07c0-.52,3.3-52.38-9.05-63.73l.67-.73C242.14,364.81,239,415.52,238.82,417.67Z" style="fill:#263238"></path><path d="M240.43,417.64h-1c0-1.42.41-35,9.95-40.5a6.77,6.77,0,0,1,6.18-.6c5.77,2.39,8.63,12.66,8.75,13.1l-.95.26c0-.11-2.86-10.25-8.18-12.45a5.82,5.82,0,0,0-5.31.55C240.82,383.18,240.43,417.3,240.43,417.64Z" style="fill:#263238"></path><path d="M236.71,417.67l-1-.06c0-.27,1.44-26.55-5.65-35.82-1.72-2.24-3.59-3.31-5.56-3.17-4.65.32-8.55,7.12-8.58,7.19l-.86-.48c.17-.3,4.19-7.33,9.37-7.7,2.32-.16,4.48,1,6.41,3.56C238.17,390.75,236.77,416.57,236.71,417.67Z" style="fill:#263238"></path><path d="M238.26,421.24c-.19-2.55-4.63-62.58,3.19-73.15l.79.58c-7.6,10.29-3,71.88-3,72.5Z" style="fill:#263238"></path><path d="M259.11,379.84s-5,1.85-3.3,5.82C260.59,396.84,272,398,272,398s5.34-8.45,1-15C266.9,374,259.24,376.92,259.11,379.84Z" style="fill:#407BFF"></path><path d="M237.3,374.84s5-.21,5.28,4.1-10.83,16.22-10.83,16.22-7.92-2.87-6.22-13.62S236.06,372.19,237.3,374.84Z" style="fill:#407BFF"></path><path d="M239.72,349.75a3.84,3.84,0,0,1-2.89-2.15c-2.35-5.63,5.74-11.7,16.55-8.5,0,0,.29,9.52-5.53,13.28S239.72,349.75,239.72,349.75Z" style="fill:#407BFF"></path><path d="M221.19,379.26s1.74-2.38-.89-2.62-14,4.87-11,16.55c0,0,14.65-4.78,15.16-9.67S221.19,379.26,221.19,379.26Z" style="fill:#407BFF"></path><path d="M252.41,353.93a5.22,5.22,0,0,1,3.14-3.08c2.48-.9,11.7-.33,11.83,11.72,0,0-14.18,2.36-15.94-2.23S252.41,353.93,252.41,353.93Z" style="fill:#407BFF"></path><path d="M244.76,364a2.07,2.07,0,0,1,2.78-.77,8.65,8.65,0,0,1,2.07,13.08s-9.52-5.72-8.74-9.74C241.59,362.82,244.76,364,244.76,364Z" style="fill:#407BFF"></path><path d="M221.45,366.86s1.37-1.8-.64-2-11,2.19-8.93,11.19c0,0,11-.83,11.46-4.57S221.45,366.86,221.45,366.86Z" style="fill:#407BFF"></path><polygon points="255.2 448.44 223.68 448.44 220.28 413.94 258.6 413.94 255.2 448.44" style="fill:#263238"></polygon><rect x="218.6" y="410.13" width="41.68" height="7.61" style="fill:#263238"></rect><path d="M230.77,391.44a.26.26,0,0,1-.25-.22c-.78-5.62,1.87-12.27,6.61-16.56a.24.24,0,0,1,.35,0,.25.25,0,0,1,0,.36c-4.63,4.18-7.22,10.66-6.45,16.12a.24.24,0,0,1-.21.28Z" style="opacity:0.30000000000000004"></path><path d="M249.24,372.87a.24.24,0,0,1-.24-.2,16.2,16.2,0,0,0-4.41-8.21.26.26,0,0,1,0-.36.25.25,0,0,1,.36,0,16.67,16.67,0,0,1,4.55,8.47.25.25,0,0,1-.2.29Z" style="opacity:0.30000000000000004"></path><path d="M270.08,390.82a.24.24,0,0,1-.23-.14A23.45,23.45,0,0,0,259,380.07a.25.25,0,1,1,.2-.45,24,24,0,0,1,11.09,10.84.25.25,0,0,1-.12.34Z" style="opacity:0.30000000000000004"></path><path d="M264.73,359.65a.26.26,0,0,1-.21-.11,11.15,11.15,0,0,0-5.45-4.46c-2.37-.91-4.36-1.55-6.59-.91a.25.25,0,1,1-.13-.48c2.37-.68,4.44,0,6.9.92a11.68,11.68,0,0,1,5.69,4.66.25.25,0,0,1-.08.35A.28.28,0,0,1,264.73,359.65Z" style="opacity:0.30000000000000004"></path><path d="M232.53,356s3.33.4,3.52-1.64-11-10-20.18-3.41c0,0,2.83,9.09,9.55,10.75S232.53,356,232.53,356Z" style="fill:#407BFF"></path><path d="M232.43,356.38a.23.23,0,0,1-.2-.11c-3.35-4.49-11.81-6.14-14.73-5.08a.25.25,0,1,1-.17-.47c3-1.08,11.71.43,15.3,5.26a.25.25,0,0,1,0,.35A.3.3,0,0,1,232.43,356.38Z" style="opacity:0.30000000000000004"></path><path d="M214.06,372.76a.22.22,0,0,1-.13,0,.24.24,0,0,1-.08-.34c1.89-3.11,5.58-4.84,7.61-5.6a.25.25,0,0,1,.32.15.24.24,0,0,1-.14.32c-2,.73-5.55,2.41-7.37,5.39A.22.22,0,0,1,214.06,372.76Z" style="opacity:0.30000000000000004"></path><path d="M210.84,389l-.12,0a.26.26,0,0,1-.11-.34,21.7,21.7,0,0,1,10.55-9.75.25.25,0,0,1,.33.14.24.24,0,0,1-.13.32,21.19,21.19,0,0,0-10.3,9.52A.25.25,0,0,1,210.84,389Z" style="opacity:0.30000000000000004"></path><path d="M240.16,349.77l-.11,0a.25.25,0,0,1-.12-.33,15.77,15.77,0,0,1,9.36-8.21.25.25,0,0,1,.31.16.26.26,0,0,1-.16.32,15.22,15.22,0,0,0-9.05,7.94A.27.27,0,0,1,240.16,349.77Z" style="opacity:0.30000000000000004"></path><polygon points="220.74 417.64 221.19 422.73 257.83 422.73 258.33 417.64 220.74 417.64" style="opacity:0.30000000000000004"></polygon></g><g id="freepik--Clock--inject-503"><g id="freepik--freepik--Clock--inject-49--inject-503"><circle cx="251.94" cy="102.28" r="24.29" style="fill:#407BFF"></circle><path d="M251.93,83.73a.11.11,0,0,1-.11-.12V81.06a.11.11,0,0,1,.11-.12.12.12,0,0,1,.12.12v2.55A.12.12,0,0,1,251.93,83.73Z" style="fill:#263238"></path><path d="M251.93,123.62a.11.11,0,0,1-.11-.12V121a.11.11,0,0,1,.11-.12.12.12,0,0,1,.12.12v2.55A.12.12,0,0,1,251.93,123.62Z" style="fill:#263238"></path><path d="M273.16,102.4H270.6a.11.11,0,0,1-.11-.12.11.11,0,0,1,.11-.11h2.56a.11.11,0,0,1,.11.11.11.11,0,0,1-.11.12Z" style="fill:#263238"></path><path d="M233.27,102.4h-2.56a.11.11,0,0,1-.11-.12.11.11,0,0,1,.11-.11h2.56a.11.11,0,0,1,.11.11A.11.11,0,0,1,233.27,102.4Z" style="fill:#263238"></path><path d="M242.84,86.09a.09.09,0,0,1-.09-.06L241.5,83.8a.12.12,0,0,1,0-.16.12.12,0,0,1,.16,0L243,85.92a.12.12,0,0,1,0,.16Z" style="fill:#263238"></path><path d="M262.27,120.93a.11.11,0,0,1-.1-.06l-1.25-2.23a.12.12,0,1,1,.21-.11l1.24,2.23a.12.12,0,0,1-.05.16h-.05Z" style="fill:#263238"></path><path d="M233.4,112.73a.11.11,0,0,1-.1-.06.1.1,0,0,1,0-.15h0l2.23-1.24a.12.12,0,0,1,.16,0,.11.11,0,0,1,0,.15l-2.24,1.25Z" style="fill:#263238"></path><path d="M268.23,93.31a.1.1,0,0,1-.09-.06.11.11,0,0,1,0-.16l2.23-1.24a.12.12,0,0,1,.16,0,.12.12,0,0,1-.05.16l-2.23,1.24Z" style="fill:#263238"></path><path d="M261,86.09h0a.12.12,0,0,1-.05-.16l1.25-2.23a.11.11,0,0,1,.15,0,.12.12,0,0,1,.05.16h0L261.13,86A.11.11,0,0,1,261,86.09Z" style="fill:#263238"></path><path d="M241.6,120.93h-.06a.12.12,0,0,1,0-.16h0l1.25-2.23a.1.1,0,0,1,.15,0,.13.13,0,0,1,0,.15l-1.25,2.23A.11.11,0,0,1,241.6,120.93Z" style="fill:#263238"></path><path d="M270.47,112.73h-.05l-2.24-1.25a.11.11,0,0,1,0-.15.12.12,0,0,1,.16,0h0l2.23,1.24a.13.13,0,0,1,0,.16A.11.11,0,0,1,270.47,112.73Z" style="fill:#263238"></path><path d="M235.63,93.31l-.06,0-2.23-1.24a.11.11,0,0,1,0-.16.1.1,0,0,1,.14,0l2.24,1.24a.12.12,0,0,1,0,.16A.13.13,0,0,1,235.63,93.31Z" style="fill:#263238"></path><path d="M251.38,102.79l.05.06a.63.63,0,0,1,0,.91l-8.07,5.46a.72.72,0,0,1-.93-.25.64.64,0,0,1,0-.92h0l8.07-5.46A.7.7,0,0,1,251.38,102.79Z" style="fill:#263238"></path><path d="M251.63,104.08a.67.67,0,0,1-.9-.27.73.73,0,0,1-.08-.33l.24-14a.67.67,0,1,1,1.33,0v0l-.24,14A.65.65,0,0,1,251.63,104.08Z" style="fill:#263238"></path><path d="M252.49,103a1.11,1.11,0,1,1-1.11-1.11,1.11,1.11,0,0,1,1.11,1.11Z" style="fill:#263238"></path></g></g><g id="freepik--Chair--inject-503"><path d="M73.34,448a1.36,1.36,0,0,0,1.34-1.18L87,353.32h20.42l12.26,93.47a1.36,1.36,0,0,0,2.69-.36L109.9,351.78a1.36,1.36,0,0,0-1.34-1.18H85.76a1.36,1.36,0,0,0-1.35,1.18L72,446.43A1.35,1.35,0,0,0,73.16,448Z" style="fill:#263238"></path><path d="M39,448a1.37,1.37,0,0,0,1.35-1.18l12.26-93.47H73.05l12.27,93.47a1.36,1.36,0,0,0,2.69-.36L75.59,351.78a1.36,1.36,0,0,0-1.35-1.18H51.44a1.36,1.36,0,0,0-1.34,1.18L37.68,446.43A1.34,1.34,0,0,0,38.85,448Z" style="fill:#263238"></path><path d="M94.83,352H49.67a15.83,15.83,0,0,1-15.83-15.51l-1.68-68.64A11.53,11.53,0,0,1,43.69,256H72a11.53,11.53,0,0,1,11.46,10.23Z" style="fill:#263238"></path><path d="M94.83,352H49.67a15.83,15.83,0,0,1-15.83-15.51l-1.68-68.64A11.53,11.53,0,0,1,43.69,256H72a11.53,11.53,0,0,1,11.46,10.23Z" style="fill:#fff;opacity:0.4"></path><path d="M64.61,341.34h54.22a7.59,7.59,0,0,1,7.59,7.59v.26a2.77,2.77,0,0,1-2.77,2.77h-59a0,0,0,0,1,0,0V341.34A0,0,0,0,1,64.61,341.34Z" style="fill:#263238"></path><path d="M64.61,341.34h54.22a7.59,7.59,0,0,1,7.59,7.59v.26a2.77,2.77,0,0,1-2.77,2.77h-59a0,0,0,0,1,0,0V341.34A0,0,0,0,1,64.61,341.34Z" style="fill:#fff;opacity:0.4"></path></g><g id="freepik--speech-bubble-2--inject-503"><g id="freepik--freepik--speech-bubble--inject-49--inject-503"><path d="M347,171H324.37a7.77,7.77,0,0,0-7.77,7.77v22a7.77,7.77,0,0,0,7.77,7.76h9l8.28,6.59-.29-6.59H347a7.77,7.77,0,0,0,7.76-7.76h0v-22A7.76,7.76,0,0,0,347,171Z" style="fill:#407BFF"></path><path d="M347,171H324.37a7.77,7.77,0,0,0-7.77,7.77v22a7.77,7.77,0,0,0,7.77,7.76h9l8.28,6.59-.29-6.59H347a7.77,7.77,0,0,0,7.76-7.76h0v-22A7.76,7.76,0,0,0,347,171Z" style="fill:#fff;isolation:isolate;opacity:0.7000000000000001"></path><path d="M327.81,185.3c2-3.28,5.81-2.08,7.82.42,1.94-2.55,5.75-3.85,7.8-.62,3.45,5.44-3.45,10.61-6.71,12.64-.37.24-.67.43-.93.58l-.94-.55C331.53,195.82,324.51,190.83,327.81,185.3Z" style="fill:#407BFF"></path></g></g><g id="freepik--speech-bubble-1--inject-503"><path d="M60.1,95.82H85.19a8.63,8.63,0,0,1,8.63,8.62v10.41a8.63,8.63,0,0,1-8.63,8.63H81l-.68,4.81-5.13-4.81H60.1a8.62,8.62,0,0,1-8.62-8.63V104.44A8.62,8.62,0,0,1,60.1,95.82Z" style="fill:#407BFF"></path><path d="M62.87,109.05a1.74,1.74,0,1,1-1.74-1.74A1.74,1.74,0,0,1,62.87,109.05Z" style="fill:#fff"></path><path d="M70.55,109.05a1.74,1.74,0,1,1-1.74-1.74A1.74,1.74,0,0,1,70.55,109.05Z" style="fill:#fff"></path><path d="M78.23,109.05a1.75,1.75,0,1,1-1.74-1.74A1.74,1.74,0,0,1,78.23,109.05Z" style="fill:#fff"></path><path d="M85.91,109.05a1.75,1.75,0,1,1-1.74-1.74A1.74,1.74,0,0,1,85.91,109.05Z" style="fill:#fff"></path></g><g id="freepik--character-2--inject-503"><path d="M367.79,252.05c-2.39,4.26-7.05,13.65-9.87,17.4,0,0,0,0,0,0l-31.81,3.93-.36,7.18c8.37,1.77,28.6,3.18,35.42,2.78,2.08-.13,3.9-2.61,5.92-4.54,6.28-7.18,8.58-13.62,12.26-20.91h0C382.75,250.28,372,244.78,367.79,252.05Z" style="fill:#d9755a"></path><path d="M316.92,271.13s-8.57,2.5-9,3.53,3.91-.4,3.91-.4Z" style="fill:#d9755a"></path><path d="M326.54,273.21s-8-3.2-9.62-2.08-10,4.56-8.31,6.62c.21.27,3.21-.77,3.37-.53s-1.78.89-2.29,1.81c-.65,1.18,2.11,3.76,3.57,3.29a42.7,42.7,0,0,0,5.6-2.24s4.75,1.6,7.44.29S326.54,273.21,326.54,273.21Z" style="fill:#d9755a"></path><path d="M306.33,269.08c-4.58-6-4.58-9.9-4.58-9.9L310,269.57h0l11.19,14.05a.72.72,0,0,1,0,1,.73.73,0,0,1-1,0,.44.44,0,0,1-.12-.15l-7.44-9.35A23.48,23.48,0,0,1,306.33,269.08Z" style="fill:#263238"></path><path d="M306.33,269.08c-4.58-6-4.58-9.9-4.58-9.9L310,269.57h0l11.19,14.05a.72.72,0,0,1,0,1,.73.73,0,0,1-1,0,.44.44,0,0,1-.12-.15l-7.44-9.35A23.48,23.48,0,0,1,306.33,269.08Z" style="fill:#fff;isolation:isolate;opacity:0.4"></path><path d="M324.26,278.19a5.19,5.19,0,0,1-5.62-2.36,18,18,0,0,1-4.52,2.29,1.53,1.53,0,0,1-1.27,0,1,1,0,0,1-.33-1.22,2.82,2.82,0,0,1,.81-1.07,24.08,24.08,0,0,1,5-3.65" style="fill:#d9755a"></path><path d="M323.09,278.59a5.5,5.5,0,0,1-4.52-2.4,18.76,18.76,0,0,1-4.37,2.17,1.73,1.73,0,0,1-1.49,0,1.3,1.3,0,0,1-.43-1.51,3.05,3.05,0,0,1,.88-1.18,24.27,24.27,0,0,1,5.09-3.68.24.24,0,0,1,.34.1.26.26,0,0,1-.1.34,24,24,0,0,0-5,3.61,2.73,2.73,0,0,0-.74,1,.8.8,0,0,0,.22.92,1.28,1.28,0,0,0,1.06-.05,17.64,17.64,0,0,0,4.46-2.25.21.21,0,0,1,.19,0,.26.26,0,0,1,.17.12A4.93,4.93,0,0,0,324.2,278a.24.24,0,0,1,.3.18.24.24,0,0,1-.18.3A4.67,4.67,0,0,1,323.09,278.59Z" style="opacity:0.2"></path><path d="M405.89,451.34a1.35,1.35,0,0,1-1.34-1.18l-12.27-93.47H371.86l-12.27,93.47a1.34,1.34,0,0,1-1.52,1.17,1.36,1.36,0,0,1-1.17-1.52l12.42-94.65a1.37,1.37,0,0,1,1.35-1.18h22.8a1.35,1.35,0,0,1,1.34,1.18l12.42,94.65a1.35,1.35,0,0,1-1.16,1.52Z" style="fill:#263238"></path><path d="M440.2,451.34a1.35,1.35,0,0,1-1.34-1.18l-12.27-93.47H406.17l-12.26,93.47a1.36,1.36,0,1,1-2.69-.35l12.42-94.65A1.35,1.35,0,0,1,405,354h22.8a1.37,1.37,0,0,1,1.35,1.18l12.42,94.65a1.35,1.35,0,0,1-1.17,1.52Z" style="fill:#263238"></path><path d="M384.39,355.34h45.16a15.85,15.85,0,0,0,15.84-15.52l1.68-68.63a11.54,11.54,0,0,0-11.53-11.77H407.23a11.53,11.53,0,0,0-11.46,10.23Z" style="fill:#263238"></path><path d="M384.39,355.34h45.16a15.85,15.85,0,0,0,15.84-15.52l1.68-68.63a11.54,11.54,0,0,0-11.53-11.77H407.23a11.53,11.53,0,0,0-11.46,10.23Z" style="fill:#fff;opacity:0.4"></path><path d="M352.8,344.72h59a2.77,2.77,0,0,1,2.77,2.77v.26a7.59,7.59,0,0,1-7.59,7.59H352.8a0,0,0,0,1,0,0V344.72a0,0,0,0,1,0,0Z" transform="translate(767.41 700.06) rotate(-180)" style="fill:#263238"></path><path d="M352.8,344.72h59a2.77,2.77,0,0,1,2.77,2.77v.26a7.59,7.59,0,0,1-7.59,7.59H352.8a0,0,0,0,1,0,0V344.72a0,0,0,0,1,0,0Z" transform="translate(767.41 700.06) rotate(-180)" style="fill:#fff;opacity:0.4"></path><path d="M369.87,237.49c-3.18,7.53-8.56,21.08-8.56,21.08l18.8,2.43s3.64-13.93,1.07-18.61C378.49,237.52,374.65,233,369.87,237.49Z" style="fill:#407BFF"></path><g style="opacity:0.30000000000000004"><path d="M369.66,246.31a19.77,19.77,0,0,0-1.54,5.07,42.82,42.82,0,0,0-.35,7.85l3.63.64C370.76,255.17,370.3,251,369.66,246.31Z"></path></g><path d="M417.23,255.43l-1.09-22.05c-1.51-3.28-17.26-4-17.12-3.87l-13.68,1.21a27.72,27.72,0,0,0-7.46,2.11c-5.07,2.27-7.76,3.95-8.7,7,0,0-1.51,6.69,1.23,19.86.75,3.63,6.64,23.22,6.29,29.62L374.81,296c3.12,3.34-.8,13.74,3.32,14.26,4.95.61,39.52-11.29,39.52-11.29-1.3-2.9-4.17-9.33-4.93-12.22-.08-3.78.71-6.35,1.6-13.08C414.49,272.37,416.82,256.72,417.23,255.43Z" style="fill:#407BFF"></path><path d="M289.68,419.39l10.45.3s18.66-35.92,27.62-56.07c10.58-23.8,8.25-31.47,11.43-31.6,5.86-.26,65.68,27.24,80.67,12s-6.69-52-6.69-52-33.4-5.16-36.12,3c-.67,2.41-2.12,4.9-2.47,7.37s-1.22,6-1.22,6h0c-.79-.2-23.67-2.41-37.88-2.09a21.92,21.92,0,0,0-19.58,13.25C303.05,349.17,289.68,419.39,289.68,419.39Z" style="fill:#d9755a"></path><path d="M395,347.69s-2.45,0-40.31-1.71c0,0,5.2,12.27,6.65,37.55.59,10.4-1.07,44.09.23,59-.65.93-7.61,4-11.86.9,0,0-24.56-88.65-24.32-100.68s14.19-15.57,14.19-15.57S366.43,342.75,395,347.69Z" style="fill:#d9755a"></path><path d="M359.76,337.77q-7.77-3.13-15.26-6.91c-8.65-4.36-19.29,1.25-20.11,10.91,0,.32,0,.65-.05,1-.12,4.89,4.24,23.21,10.48,43.13a35,35,0,0,0-.67-3.51c-6.19-24.88-9.3-37.8-6.19-43.82a18.58,18.58,0,0,1,9.38-8.23l33.83,16.49c18.63.81,21.42.85,21.75.85A166.67,166.67,0,0,1,359.76,337.77Z" style="isolation:isolate;opacity:0.2"></path><path d="M347.92,438.4a1,1,0,0,1,1-1h3.18c.81,0,1.68,1.42,2.17,2.06,2.12,2.74,3.63,1.65,5.8-1,1.41-.2,1.83,1.41,2,1.85l2.89,9.59a1.53,1.53,0,0,1-1,1.91,1.61,1.61,0,0,1-.44.06l-11.72.29-16.42.39c-4.48.11-5.52-4.38-3.68-4.84,8.24-2,14.06-4.61,16.56-7.09C348.53,440.28,348,439.38,347.92,438.4Z" style="fill:#407BFF"></path><path d="M349.57,443.75a.26.26,0,0,1-.21-.11,4,4,0,0,0-2.88-1.76.26.26,0,0,1-.22-.28.24.24,0,0,1,.28-.22,4.56,4.56,0,0,1,3.24,2,.25.25,0,0,1-.07.35A.23.23,0,0,1,349.57,443.75Z" style="fill:#fff"></path><path d="M347.27,445.18a.26.26,0,0,1-.21-.11,4.07,4.07,0,0,0-2.89-1.76A.25.25,0,0,1,344,443a.24.24,0,0,1,.27-.22,4.54,4.54,0,0,1,3.24,2,.25.25,0,0,1-.06.35A.27.27,0,0,1,347.27,445.18Z" style="fill:#fff"></path><path d="M344.42,446.65a.25.25,0,0,1-.21-.12,4,4,0,0,0-2.88-1.76.24.24,0,0,1-.22-.27.23.23,0,0,1,.27-.22,4.51,4.51,0,0,1,3.25,2,.25.25,0,0,1-.07.34A.27.27,0,0,1,344.42,446.65Z" style="fill:#fff"></path><path d="M290.18,412.39l3.35,1.2a2.53,2.53,0,0,1,1.54,1.68c1,3.33,2.79,2.86,5.78,1.14,1.39.32,1.19,2,1.15,2.43l-.77,10a1.51,1.51,0,0,1-1.62,1.41,1.64,1.64,0,0,1-.44-.09l-11-4-15.45-5.57c-4.21-1.51-3.55-6.07-1.68-5.84,8.43,1.09,14.78.78,18-.62C289.61,413.91,289.25,413.44,290.18,412.39Z" style="fill:#407BFF"></path><path d="M289.11,417.68a.25.25,0,0,1-.24-.2,4,4,0,0,0-2.05-2.68.26.26,0,0,1-.11-.34.25.25,0,0,1,.34-.1,4.54,4.54,0,0,1,2.31,3,.24.24,0,0,1-.19.29Z" style="fill:#fff"></path><path d="M286.47,418.05a.25.25,0,0,1-.24-.2,4,4,0,0,0-2.05-2.68.25.25,0,0,1,.23-.45,4.56,4.56,0,0,1,2.31,3,.25.25,0,0,1-.19.3Z" style="fill:#fff"></path><path d="M283.41,418.43a.25.25,0,0,1-.24-.2,4,4,0,0,0-2.05-2.68.26.26,0,0,1-.11-.34.25.25,0,0,1,.34-.1,4.54,4.54,0,0,1,2.31,3,.24.24,0,0,1-.19.29Z" style="fill:#fff"></path><path d="M413.77,289.85s-23.32.82-37.07-.54C376,291.72,373.32,300,373,302.5s-.8,4.4-.8,4.4h0l-4,0-3.61,35.2c19.92,6.4,46.32,11,55.31,1.87C434.82,328.78,413.77,289.85,413.77,289.85Z" style="fill:#263238"></path><path d="M360.17,346.28l.58-8.49a166,166,0,0,0,33.16,9.9" style="fill:#263238"></path><path d="M372.17,306.93l21.08,4.4s-11.54-6.26-20.28-8.8C372.56,305,372.17,306.93,372.17,306.93Z" style="isolation:isolate;opacity:0.30000000000000004"></path><path d="M398.87,188.27a7,7,0,0,0,2.67-4.16c-1.6,1.23-3.07,2.41-5.32,2,2.58-2.56,2.36-6.52.64-8.41s-5.72-2.09-7.94-.81a6.88,6.88,0,0,0-3.21,6.53l6.78,6.92a9.8,9.8,0,0,0,10.17-2A12.67,12.67,0,0,1,398.87,188.27Z" style="fill:#263238"></path><path d="M396.75,191.08a24.53,24.53,0,0,0-3.41-3.78h0c-6.05-5.39-14.75-6.82-23.07.11-4.88,4.06-8.23,9-7.39,16.25a.5.5,0,0,0,0,.12c1.34,14.58-.86,21.69-2.25,24.59a1,1,0,0,0,1,1.48c8.56-.82,41.21-4.12,43.25-7.49S405.86,202.75,396.75,191.08Z" style="fill:#263238"></path><path d="M399.79,229.9s-3.52,3.12-8,7.6a18.26,18.26,0,0,1-3.1,2.45c-3,1.89-5.82,3.05-6.7,1.6a5,5,0,0,1-.48-1.05c-.84-2.48-.83-6.07,1.11-7.84,2.17-2,3.17-3.66,2.58-6.12a19.39,19.39,0,0,0-1.63-4.19l2.55-1.79,8.82-10.27C394.26,216.25,394.53,226.78,399.79,229.9Z" style="fill:#d9755a"></path><path d="M385.31,227.08c2.5-1.74,5.17-4.64,4.61-7.69a14.39,14.39,0,0,0-1-3.25l-4.81,7.41A18.06,18.06,0,0,1,385.31,227.08Z" style="opacity:0.2"></path><path d="M393.21,197.7c2,9.64,3,13.67-.39,20-5.06,9.58-17,10.45-21.72,1.73-4.25-7.85-6.73-22.29,1.3-29A12.6,12.6,0,0,1,393.21,197.7Z" style="fill:#d9755a"></path><path d="M382,204.4c.25,1,0,2-.65,2.18s-1.32-.46-1.57-1.47,0-2,.66-2.18S381.72,203.39,382,204.4Z" style="fill:#263238"></path><path d="M372.71,207.14c.25,1,0,1.93-.66,2.13s-1.31-.44-1.55-1.41.06-1.93.67-2.13S372.47,206.17,372.71,207.14Z" style="fill:#263238"></path><path d="M382.89,200.35a.45.45,0,0,1-.36,0,3.53,3.53,0,0,0-3.35.06.45.45,0,0,1-.64-.15.53.53,0,0,1,.17-.68,4.41,4.41,0,0,1,4.24-.13.48.48,0,0,1,.2.65A.46.46,0,0,1,382.89,200.35Z" style="fill:#263238"></path><path d="M368.19,203.37a.35.35,0,0,1-.27-.14.52.52,0,0,1,.05-.67,4,4,0,0,1,3.72-1.39.43.43,0,0,1,.28.56.46.46,0,0,1-.52.37,3.22,3.22,0,0,0-2.94,1.13A.43.43,0,0,1,368.19,203.37Z" style="fill:#263238"></path><path d="M375.09,205.93a33.11,33.11,0,0,1-1.41,6.64.75.75,0,0,0,.67,1,4.85,4.85,0,0,0,2.53-.71Z" style="fill:#c6432d"></path><path d="M380.77,202.87l-2.3.14S380.13,204.26,380.77,202.87Z" style="fill:#263238"></path><path d="M371.4,205.69l-2.31.14S370.75,207.08,371.4,205.69Z" style="fill:#263238"></path><path d="M390.92,201.92s-7-5.84-8.54-11.81c0,0-10,.36-14.41,12.45-.71,1.92-.62,4.75-1,7.33,0,0-7.12-17.32,8.28-23.53s25.15,15.1,19.68,24.89A12.16,12.16,0,0,0,390.92,201.92Z" style="fill:#263238"></path><path d="M398.34,204.49a7.88,7.88,0,0,1-3.5,4.92c-2.3,1.36-4.77-2.24-4.67-5a5.2,5.2,0,0,1,4.65-4.92C397.34,199.27,398.94,201.91,398.34,204.49Z" style="fill:#d9755a"></path><path d="M378,216a33.72,33.72,0,0,1,3.41,3l.67-.46c3-2.13,3.63-4.1,3.48-5.7a4.93,4.93,0,0,0-.79-2.09,4.53,4.53,0,0,0-.83-1c-.89,2.07-3.51,4.27-4.94,5.39C378.41,215.72,378,216,378,216Z" style="fill:#263238"></path><path d="M379,215.22l1,.87c2.73-2,4.48-3.8,4.74-5.28a4.59,4.59,0,0,0-.83-1C383.06,211.93,380.44,214.18,379,215.22Z" style="fill:#fff"></path><path d="M382.1,218.56c3-2.13,3.63-4.1,3.48-5.7a11.38,11.38,0,0,0-2.86,3A4.37,4.37,0,0,0,382.1,218.56Z" style="fill:#c6432d"></path><path d="M400.75,253.51c.36.43-8.29,11.34-9,11.59l-14.13-22.37-5.76,1s4.74,15,7.62,24.43c4.17,13.56,11.19,14.59,18.06,10.1,7.32-4.78,16.78-19.28,16.78-19.28Z" style="fill:#d9755a"></path><path d="M418.89,239.78c.58,7.73-2,20-2,20L398.33,252s4.57-12,8.87-16.78C410.84,231.23,417.52,229.87,418.89,239.78Z" style="fill:#407BFF"></path><rect x="374.86" y="228.02" width="1.4" height="17.27" style="fill:#e0e0e0"></rect><path d="M377.27,221l-.32,5.77h-.75l-.14-5.77h-.77l-.12,5.77h-.75l-.37-5.77h-.7v6.18a2.34,2.34,0,0,0,4.68,0l-.14-6.18Z" style="fill:#e0e0e0"></path><path d="M369,233,368,235.83c-.4,1.06.51,3.42,1.14,4.37l2.14,3.22a6.53,6.53,0,0,0,5.23,2.89h1.31c2.09-4.53,1-11,1-11l-.1-1.87a2.92,2.92,0,0,0-3-2.82h0l-3.66.16A3.36,3.36,0,0,0,369,233Z" style="fill:#d9755a"></path><path d="M378.07,219.25a9,9,0,0,0-2.7-1,5,5,0,0,0-2.18,0,2.22,2.22,0,0,0-1.58,1.16,2.54,2.54,0,0,0,.07,1.61l.45,1.73a1.31,1.31,0,0,0,.44.79,1.9,1.9,0,0,0,1.45.09,8.24,8.24,0,0,0,4.05-2.28l.74-.75a.66.66,0,0,0-.13-1C378.46,219.46,378.22,219.33,378.07,219.25Z" style="fill:#407BFF"></path></g><g id="freepik--character-1--inject-503"><polygon points="163.02 166.38 180.86 202.87 214.78 231.62 209.93 238.65 169.59 215.57 149.35 179 163.02 166.38" style="fill:#895555"></polygon><path d="M212.54,230.17s9.53,4.74,9.82,7.14,4,12.95.75,13.1c-.42,0-1.94-3.6-2.28-3.54s.63,2.37.21,3.59c-.55,1.57-5.19,1.16-6-.58a52,52,0,0,1-2.54-7s-5.39-3.07-6.39-6.61S212.54,230.17,212.54,230.17Z" style="fill:#895555"></path><path d="M219.52,247.12a1.26,1.26,0,0,1-.33-.05,2.06,2.06,0,0,1-1.19-1.33,22.45,22.45,0,0,1-1.59-5.85,6.65,6.65,0,0,1-6.8-3.41.24.24,0,0,1,.1-.33.24.24,0,0,1,.34.1,6.14,6.14,0,0,0,6.52,3.1.24.24,0,0,1,.2.05.27.27,0,0,1,.1.17,21.6,21.6,0,0,0,1.59,6c.2.46.45.93.87,1.05a1,1,0,0,0,1.1-.58,3.45,3.45,0,0,0,.29-1.51,30.06,30.06,0,0,0-.78-7.57.26.26,0,0,1,.18-.31.25.25,0,0,1,.3.19,30.68,30.68,0,0,1,.8,7.7,3.75,3.75,0,0,1-.36,1.74A1.62,1.62,0,0,1,219.52,247.12Z" style="opacity:0.2"></path><path d="M222.36,237.31s4.75,9.95,4.12,11.15-2.84-3.93-2.84-3.93Z" style="fill:#895555"></path><polygon points="174.17 415.83 182.6 438.59 190.24 436.12 187.6 412.1 174.17 415.83" style="fill:#895555"></polygon><path d="M195,431.12c.12-1.47,0-2.7-1.55-2.79l-2.24-.12a3.85,3.85,0,0,0-2.13,1c-5.13,3.57-7.23-1-9.23-1-2.55,0-.91,8.17-1,8.6l-2.79,9.48c-.25.8.24,2.51,1.09,2.73a1.84,1.84,0,0,0,.47.06h29.62c4.71,0,4.77-5.77,2.83-6.18-8.73-1.8-12.17-4.65-15.05-6.74A38.45,38.45,0,0,1,195,431.12Z" style="fill:#407BFF"></path><path d="M207.25,449.08H177.63a1.84,1.84,0,0,1-.47-.06c-.57-.15-1-1-1.11-1.76l0-.72h35A3.72,3.72,0,0,1,207.25,449.08Z" style="fill:#fff;opacity:0.4"></path><path d="M199.12,439.09a8.47,8.47,0,0,0-1.85,2.47.38.38,0,0,0,.65.38,7.74,7.74,0,0,1,1.73-2.32.37.37,0,0,0,0-.53.39.39,0,0,0-.53,0Z" style="fill:#263238"></path><path d="M196.4,437.44a9.14,9.14,0,0,0-1.76,2.29.38.38,0,0,0,.65.38A8.83,8.83,0,0,1,196,439s0-.05,0,0l0-.06.11-.13.22-.26c.16-.18.33-.35.5-.51a.39.39,0,0,0,0-.53.38.38,0,0,0-.53,0Z" style="fill:#263238"></path><path d="M194.54,435.94a3.92,3.92,0,0,0-1.64,1.73.37.37,0,0,0,.13.51.39.39,0,0,0,.52-.13,3.72,3.72,0,0,1,.27-.48.86.86,0,0,1,.07-.1s.05-.09,0,0l0,0,.18-.2c.13-.13.27-.24.4-.36h0l.05,0,.12-.08.24-.14a.38.38,0,0,0-.38-.65Z" style="fill:#263238"></path><path d="M194.73,432.88a6.46,6.46,0,0,0-2.42.49.37.37,0,0,0,.2.72,5.92,5.92,0,0,1,2.22-.46.38.38,0,0,0,.37-.38.37.37,0,0,0-.37-.37Z" style="fill:#263238"></path><g style="opacity:0.30000000000000004"><path d="M186,433.68a2.55,2.55,0,0,1-1.1,2.17,3.24,3.24,0,0,1-1.55.22l-4.71-.14,0-.05c-.25-2.23-.91-7.68,1-7.67,1.54,0,3.15,3.12,6.36,2.21C186,431.6,186,433.11,186,433.68Z"></path></g><polygon points="119.15 411.78 115.78 436.54 107.7 436.95 105.09 413.08 119.15 411.78" style="fill:#895555"></polygon><path d="M100.83,448h18a4.51,4.51,0,0,0,0-2.78c-.07-.31-.16-.66-.28-1,0,0,0,0,0-.06-.17-.56-.37-1.25-.57-2a79,79,0,0,1-1.39-10s-3.41-3.43-6.93-1.82c-3.08,1.41-2.6,3.19-2.6,3.19s0,4.61-2.39,6.7c-1.44,1.29-2.88,2.29-3.57,3.89a5.68,5.68,0,0,0-.31,1,.59.59,0,0,1,0,.13A7.77,7.77,0,0,0,100.83,448Z" style="fill:#407BFF"></path><g style="opacity:0.4"><path d="M118.83,445.26a4.51,4.51,0,0,1,0,2.78h-18a7.77,7.77,0,0,1-.07-2.78Z" style="fill:#fff"></path></g><path d="M108,436.84a2.43,2.43,0,0,1,3.26.2c.24.24.62-.14.37-.38a3,3,0,0,0-4-.2c-.27.21.11.59.38.38Z" style="fill:#263238"></path><path d="M107.52,438.52a2.43,2.43,0,0,1,3.26.21c.24.24.62-.14.37-.38a3,3,0,0,0-4-.2c-.27.21.11.58.38.37Z" style="fill:#263238"></path><path d="M107,440.07a2.43,2.43,0,0,1,3.26.21c.24.24.62-.14.37-.38a3,3,0,0,0-4-.2c-.27.21.11.58.38.37Z" style="fill:#263238"></path><path d="M100.5,254.71l39,.33,23.72-.72s16.66,71.81,18.07,85.33,13.56,84.73,13.56,84.73l-18.44,4.05s-21-76.14-22.48-83.45c-1.32-6.38-15.89-47.26-19.61-57.65-.37,2.13-.76,4.26-1.15,6.39-.94,9.58-4,40.14-5.27,51.51,0,0-2.86,64.95-6.17,83.82l-17.36,0c-2.29-26.78-3.76-120.84-3.76-120.84h0C99.29,287.81,100.5,254.71,100.5,254.71Z" style="fill:#407BFF"></path><g style="opacity:0.5"><path d="M153.45,265.06a22.94,22.94,0,0,0,15.37,15.18.32.32,0,0,1-.17.61,23.59,23.59,0,0,1-15.81-15.62.32.32,0,0,1,.61-.17Z"></path><path d="M133.66,265.06q.65,9.51,1.28,19c0,.41.65.41.63,0q-.33-4.87-.65-9.77c1.56,1.21,3.39-.25,3.9-1.87a15.85,15.85,0,0,0-.13-8.34.32.32,0,0,0-.61.16,18,18,0,0,1,.52,5.61,7.63,7.63,0,0,1-.61,2.95c-.5,1-1.76,1.81-2.78.92a.3.3,0,0,0-.33-.05c-.2-2.87-.39-5.76-.59-8.63C134.27,264.65,133.64,264.65,133.66,265.06Z"></path><path d="M115,266.14a16,16,0,0,1-14.74,16.1c-.4,0-.4-.6,0-.63a15.37,15.37,0,0,0,14.12-15.47.31.31,0,0,1,.62,0Z"></path><path d="M110.92,348.09a11.67,11.67,0,0,1-8,.05c-.38-.14-.22-.74.16-.6a11.17,11.17,0,0,0,7.69-.05c.37-.14.54.46.16.6Z"></path></g><g style="opacity:0.5"><path d="M100.5,254.71l39,.33,23.72-.72s16.66,71.81,18.07,85.33,13.56,84.73,13.56,84.73l-18.44,4.05s-21-76.14-22.48-83.45c-1.32-6.38-15.89-47.26-19.61-57.65-.37,2.13-.76,4.26-1.15,6.39-.94,9.58-4,40.14-5.27,51.51,0,0-2.86,64.95-6.17,83.82l-17.36,0c-2.29-26.78-3.76-120.84-3.76-120.84h0C99.29,287.81,100.5,254.71,100.5,254.71Z"></path></g><path d="M147.83,153.71c-6.68,4.87-7.51,18.56,13.12,48L178.66,193c-3.07-7.38-8.51-19.61-14-29.69C158.38,150.41,147.83,153.71,147.83,153.71Z" style="fill:#407BFF"></path><path d="M149.81,153.19c-5.3-.33-26-2.35-47.62,2L100,234.55a179.68,179.68,0,0,1-.84,24.93c22.64,8.75,53.56,6.72,68-2.26-.16.35-1.08-8.71-2.49-22-2.49-23.39-6.25-58.88-10.11-79.92C154.1,154.85,151.33,153.19,149.81,153.19Z" style="fill:#407BFF"></path><polygon points="160.58 198.49 157.29 172.72 163.25 200.6 160.95 201.73 160.58 198.49" style="isolation:isolate;opacity:0.2"></polygon><polygon points="100.68 201.43 103.4 201.78 107.7 180.71 105.71 204.37 99.98 205.3 100.68 201.43" style="isolation:isolate;opacity:0.2"></polygon><path d="M102.67,194.54,100,205.3l10.65-10,9.7,5.42s-17.93,25.29-25,27.4c-2.67.79-12.38-1.78-12.38-9,0-13.53,3-23.15,5.08-34.85Z" style="fill:#895555"></path><path d="M102.88,155.07S92.7,156,89.29,169.24C86.8,178.94,82.07,199,82.07,199l21.33,2.77,4.3-25.58Z" style="fill:#407BFF"></path><path d="M119.6,181.55V187a7.21,7.21,0,0,0,7.2,7.2,7.89,7.89,0,0,0,.85-.08v1.39a3,3,0,0,0,3,3h15.72a3,3,0,0,0,3-3V170.06h-21.7v4.38a6,6,0,0,0-.85-.09A7.21,7.21,0,0,0,119.6,181.55Zm3.08-.51a2.85,2.85,0,0,1,.77-2,4.36,4.36,0,0,1,4.2-1.53V191a4.36,4.36,0,0,1-4.2-1.55,2.81,2.81,0,0,1-.77-2Z" style="fill:#263238"></path><path d="M119.6,181.55s4.74-3.41,5.45-2.79,2.37,3.05,2,5.08c0,0,2.07,1.9.92,4.21l-.92,1.35s3,.29,1.53,4-5.37,6.53-8.3,8-9.63-5.49-9.65-6l2.51-2.93c.12-5.58,6.66-13.48,7-13.56Z" style="fill:#895555"></path><path d="M120.23,153.94s.94-6.76-3-18.48c0,0,.61-.32.61-.34-.54-1.63-1.11-3.15-1.65-4.46a.18.18,0,0,1,0,0l16.68,9.33c-.22,3.82,1.46,11.09,2.41,14.16,0,0,2.29,5.52-5.16,6.09C124.65,160.6,120.23,153.94,120.23,153.94Z" style="fill:#895555"></path><path d="M133.35,145.27l-9.44-1.7c1,2.87,3.7,6.2,10.21,6.2A28.5,28.5,0,0,1,133.35,145.27Z" style="opacity:0.2"></path><path d="M115.69,122.73c1.54,10.25,2.21,16.06,7.88,20.84,8.54,7.19,20.58,1.49,22.13-9,1.4-9.48-1.36-24.65-11.82-27.76A14.3,14.3,0,0,0,115.69,122.73Z" style="fill:#895555"></path><path d="M113.29,110.45c.91-5.8,15.14-7.12,19.37-4.57.63.38-7.42,5.36-6.93,5.13l-3.85,1.72c-.62-.08-1.76.74-2.21,2.7,0,0,1.85,15.76-2.23,20.72-3.75-1.43-4.51-7.68-6-11.3C109.28,119.44,106.53,111.48,113.29,110.45Z" style="fill:#263238"></path><path d="M145.7,134.52s-8.7-1-11.58-2a47.66,47.66,0,0,0-7.07-1.57c-2-.29-6.82-5.44-6.82-5.44l-1.28.71-1.22,10.74s5.87,11.18,15.82,9.77c9.15-1.29,11.94-9.63,12.15-12.18" style="opacity:0.1"></path><path d="M112.38,131.68a9.7,9.7,0,0,0,5.35,5.25c3.21,1.26,4.06-2.21,3.48-5.43-.52-2.9-1.69-6.38-5.06-6.26S111.17,128.73,112.38,131.68Z" style="fill:#895555"></path><path d="M130.47,125.36c.09,1.06.72,1.85,1.41,1.79s1.18-1,1.08-2-.72-1.86-1.41-1.79S130.37,124.31,130.47,125.36Z" style="fill:#263238"></path><path d="M140.69,124.67c.09,1.06.73,1.86,1.41,1.79s1.18-1,1.09-2-.73-1.86-1.42-1.79S140.59,123.62,140.69,124.67Z" style="fill:#263238"></path><path d="M137.65,123.41s3.8,4.94,5,7c-1.35,1.45-3.93,1.07-3.93,1.07Z" style="fill:#773737"></path><path d="M127.69,119.66a.48.48,0,0,0,.48-.12,4,4,0,0,1,3.42-1.1.51.51,0,0,0,.61-.36.5.5,0,0,0-.36-.6,5,5,0,0,0-4.34,1.35.5.5,0,0,0,0,.7A.61.61,0,0,0,127.69,119.66Z" style="fill:#263238"></path><path d="M135.14,135.52a6.87,6.87,0,0,1-4.31-1.84.37.37,0,0,1-.06-.52.38.38,0,0,1,.53-.06c1.6,1.29,2.88,1.78,4.28,1.65a.37.37,0,1,1,.07.74Z" style="fill:#263238"></path><path d="M119.46,131.54a.26.26,0,0,1-.25-.2,4.83,4.83,0,0,0-1.12-2.26,3.07,3.07,0,0,0-1.72-1.05,1.63,1.63,0,0,0-1.67.71.25.25,0,0,1-.34.1.26.26,0,0,1-.1-.34,2.13,2.13,0,0,1,2.18-1,3.55,3.55,0,0,1,2,1.22,5.37,5.37,0,0,1,1.23,2.49.25.25,0,0,1-.19.3Z" style="opacity:0.2"></path><path d="M145.23,118.84a.54.54,0,0,0,.24-.16.5.5,0,0,0-.07-.7,4.87,4.87,0,0,0-4.38-1,.49.49,0,0,0-.32.62.49.49,0,0,0,.61.33,3.76,3.76,0,0,1,3.46.85A.49.49,0,0,0,145.23,118.84Z" style="fill:#263238"></path><path d="M110.78,106.16c.6-2.37,3.56-3.09,5.87-2.78-.31-2.82,3.25-4.71,5.57-4.8s3.35.81,3.35.81c-.18,0,.63-1.45,1.16-2.06a7.35,7.35,0,0,1,7.94-2.13,8,8,0,0,1,5,6.88,3.93,3.93,0,0,1,5.59-.27,4.47,4.47,0,0,1,.17,5.9,3.52,3.52,0,0,1,3.31,3.62,3.48,3.48,0,0,1-3.61,3.28c0,2.1,0,4.72,0,6.82l-3.33-7.49c-1.47-.41-1.79-1-2.19-2.59-.92,2.05-2.58,2-4.73,2.07a6,6,0,0,1-5.32-3.2,6.39,6.39,0,0,1-5.2,4,4.6,4.6,0,0,1-4.7-4.08,4.9,4.9,0,0,1-6.07,2.12A5.39,5.39,0,0,1,110.78,106.16Z" style="fill:#263238"></path><path d="M99.94,205.35a11.57,11.57,0,0,0-7.44,7.57s-.65-2.49,1.45-5.74,6.64-4.44,6.64-4.44Z" style="isolation:isolate;opacity:0.2"></path></g><g id="freepik--Table--inject-503"><path d="M270.92,254.35h11.47s-.45,11.3-1.22,13.7-1.71,6.32-1.71,16H268.4c0-9.67-1-13.57-1.71-16s-1.2-13.7-1.2-13.7Z" style="fill:#407BFF"></path><path d="M270.92,254.35h11.47s-.45,11.3-1.22,13.7-1.71,6.32-1.71,16H268.4c0-9.67-1-13.57-1.71-16s-1.2-13.7-1.2-13.7Z" style="fill:#fff;isolation:isolate;opacity:0.4"></path><path d="M280.81,264.52a17.41,17.41,0,0,1-.5,3.22c-.85,2.67-1.71,6.58-1.71,15.41h-9.29c0-8.78-.95-12.68-1.8-15.41a21.78,21.78,0,0,1-.5-3.22Z" style="fill:#fff;isolation:isolate;opacity:0.4"></path><path d="M300.84,284.13H338a7.17,7.17,0,0,0,4.37-1.87H296.47A7.12,7.12,0,0,0,300.84,284.13Z" style="fill:#e0e0e0"></path><path d="M330,282.26h-24a.74.74,0,0,1-.74-.74h0a.75.75,0,0,1,.74-.75h24a.75.75,0,0,1,.75.75h0A.74.74,0,0,1,330,282.26Z" style="fill:#407BFF"></path><path d="M329.28,280.77h-24a.75.75,0,0,1-.75-.74h0a.76.76,0,0,1,.75-.75h24a.75.75,0,0,1,.74.75h0A.74.74,0,0,1,329.28,280.77Z" style="fill:#407BFF"></path><path d="M329.28,280.77h-24a.75.75,0,0,1-.75-.74h0a.76.76,0,0,1,.75-.75h24a.75.75,0,0,1,.74.75h0A.74.74,0,0,1,329.28,280.77Z" style="opacity:0.30000000000000004"></path><path d="M330.21,279.28h-24a.74.74,0,0,1-.74-.74h0a.74.74,0,0,1,.74-.75h24a.75.75,0,0,1,.75.75h0A.75.75,0,0,1,330.21,279.28Z" style="fill:#407BFF"></path><path d="M328.9,276.26h-24a.76.76,0,0,1-.75-.75h0a.75.75,0,0,1,.75-.74h24a.75.75,0,0,1,.75.74h0A.76.76,0,0,1,328.9,276.26Z" style="fill:#407BFF"></path><path d="M329.7,277.79h-24A.75.75,0,0,1,305,277h0a.75.75,0,0,1,.75-.74h24a.75.75,0,0,1,.75.74h0A.75.75,0,0,1,329.7,277.79Z" style="fill:#407BFF"></path><path d="M329.7,277.79h-24A.75.75,0,0,1,305,277h0a.75.75,0,0,1,.75-.74h24a.75.75,0,0,1,.75.74h0A.75.75,0,0,1,329.7,277.79Z" style="opacity:0.30000000000000004"></path><path d="M297.82,268.06a5.36,5.36,0,0,0-4.75-.06,4.41,4.41,0,0,0-6.67-1,4.05,4.05,0,0,0-6.7,1.91,3.45,3.45,0,0,0-3.38,1.66l24.25,1.37A5.33,5.33,0,0,0,297.82,268.06Z" style="fill:#407BFF"></path><g style="isolation:isolate;opacity:0.4"><path d="M297.82,268.06a5.36,5.36,0,0,0-4.75-.06,4.41,4.41,0,0,0-6.67-1,4.05,4.05,0,0,0-6.7,1.91,3.45,3.45,0,0,0-3.38,1.66l24.25,1.37A5.33,5.33,0,0,0,297.82,268.06Z" style="fill:#fff"></path></g><path d="M274.62,269.89a14.25,14.25,0,0,0,28.49,0Z" style="fill:#407BFF"></path><circle cx="251.26" cy="259.58" r="8.23" transform="translate(-80.51 116.61) rotate(-22.62)" style="fill:#c6432d"></circle><circle cx="232.92" cy="254.35" r="8.23" transform="translate(-68.28 422.36) rotate(-76.67)" style="fill:#c6432d"></circle><circle cx="223.44" cy="259.72" r="8.23" style="fill:#d9755a"></circle><circle cx="239.94" cy="259.01" r="8.23" style="fill:#d9755a"></circle><path d="M213.47,260.82a23.31,23.31,0,1,0,46.61,0Z" style="fill:#407BFF"></path><rect x="175.45" y="237.65" width="37.2" height="46.36" style="fill:#407BFF"></rect><rect x="203.15" y="237.65" width="9.5" height="46.36" style="opacity:0.30000000000000004"></rect><rect x="179.04" y="245.66" width="20.39" height="2.32" style="fill:#fff;isolation:isolate;opacity:0.4"></rect><rect x="185.76" y="242.83" width="6.72" height="2.32" style="fill:#fff;isolation:isolate;opacity:0.4"></rect><rect x="179.04" y="252.27" width="20.39" height="26.63" style="fill:#fff;isolation:isolate;opacity:0.4"></rect><rect x="205.13" y="243.99" width="5.84" height="12.49" style="fill:#fff;isolation:isolate;opacity:0.4"></rect><rect x="205.13" y="259.64" width="5.84" height="1.19" style="fill:#fff;isolation:isolate;opacity:0.4"></rect><rect x="205.13" y="262.09" width="5.84" height="1.19" style="fill:#fff;isolation:isolate;opacity:0.4"></rect><rect x="205.13" y="264.53" width="5.84" height="1.19" style="fill:#fff;isolation:isolate;opacity:0.4"></rect><rect x="205.13" y="266.98" width="5.84" height="1.19" style="fill:#fff;isolation:isolate;opacity:0.4"></rect><rect x="205.13" y="269.42" width="5.84" height="1.19" style="fill:#fff;isolation:isolate;opacity:0.4"></rect><rect x="205.13" y="271.86" width="5.84" height="1.19" style="fill:#fff;isolation:isolate;opacity:0.4"></rect><rect x="161.76" y="284.01" width="207.75" height="10.6" style="fill:#263238"></rect><rect x="169.11" y="294.61" width="7.96" height="157.93" style="fill:#263238"></rect><rect x="347.96" y="294.61" width="7.96" height="157.93" style="fill:#263238"></rect></g></svg>
